<svg width="20" height="19" viewBox="0 0 20 19" fill="none" xmlns="http://www.w3.org/2000/svg">
<path d="M20 9V18C20 18.2652 19.8946 18.5196 19.7071 18.7071C19.5196 18.8946 19.2652 19 19 19H18C17.7348 19 17.4804 18.8946 17.2929 18.7071C17.1054 18.5196 17 18.2652 17 18V17H3V18C3 18.2652 2.89464 18.5196 2.70711 18.7071C2.51957 18.8946 2.26522 19 2 19H1C0.734784 19 0.48043 18.8946 0.292893 18.7071C0.105357 18.5196 0 18.2652 0 18V9L2.48 3.212C2.63432 2.852 2.89096 2.54524 3.21805 2.32978C3.54515 2.11432 3.92832 1.99965 4.32 2H7V0H13V2H15.681C16.0723 2.00004 16.4551 2.1149 16.7818 2.33033C17.1085 2.54576 17.3648 2.85231 17.519 3.212L20 9ZM2.176 9H17.824L15.681 4H4.32L2.177 9H2.176ZM4.5 14C4.89782 14 5.27936 13.842 5.56066 13.5607C5.84196 13.2794 6 12.8978 6 12.5C6 12.1022 5.84196 11.7206 5.56066 11.4393C5.27936 11.158 4.89782 11 4.5 11C4.10218 11 3.72064 11.158 3.43934 11.4393C3.15804 11.7206 3 12.1022 3 12.5C3 12.8978 3.15804 13.2794 3.43934 13.5607C3.72064 13.842 4.10218 14 4.5 14ZM15.5 14C15.8978 14 16.2794 13.842 16.5607 13.5607C16.842 13.2794 17 12.8978 17 12.5C17 12.1022 16.842 11.7206 16.5607 11.4393C16.2794 11.158 15.8978 11 15.5 11C15.1022 11 14.7206 11.158 14.4393 11.4393C14.158 11.7206 14 12.1022 14 12.5C14 12.8978 14.158 13.2794 14.4393 13.5607C14.7206 13.842 15.1022 14 15.5 14Z" fill="#181A25"/>
</svg>
