<svg width="24" height="18" viewBox="0 0 24 18" fill="none" xmlns="http://www.w3.org/2000/svg">
<path d="M19 16H5V17C5 17.2652 4.89464 17.5196 4.70711 17.7071C4.51957 17.8946 4.26522 18 4 18H3C2.73478 18 2.48043 17.8946 2.29289 17.7071C2.10536 17.5196 2 17.2652 2 17V9.5L0.757 9.19C0.540753 9.13583 0.348809 9.01095 0.211655 8.83521C0.0745022 8.65946 5.86043e-06 8.44293 0 8.22L0 7.5C0 7.36739 0.0526784 7.24022 0.146447 7.14645C0.240215 7.05268 0.367392 7 0.5 7H2L4.48 1.212C4.63432 0.852001 4.89096 0.545239 5.21805 0.32978C5.54515 0.114322 5.92832 -0.000347568 6.32 7.91365e-07H17.68C18.0713 4.4012e-05 18.4541 0.114897 18.7808 0.330331C19.1075 0.545765 19.3638 0.852314 19.518 1.212L22 7H23.5C23.6326 7 23.7598 7.05268 23.8536 7.14645C23.9473 7.24022 24 7.36739 24 7.5V8.22C24 8.44293 23.9255 8.65946 23.7883 8.83521C23.6512 9.01095 23.4592 9.13583 23.243 9.19L22 9.5V17C22 17.2652 21.8946 17.5196 21.7071 17.7071C21.5196 17.8946 21.2652 18 21 18H20C19.7348 18 19.4804 17.8946 19.2929 17.7071C19.1054 17.5196 19 17.2652 19 17V16ZM20 14V9H4V14H20ZM5.477 7H18.523C18.6863 6.9999 18.8471 6.95979 18.9914 6.88318C19.1357 6.80657 19.2589 6.6958 19.3505 6.56054C19.442 6.42528 19.4991 6.26966 19.5166 6.10727C19.5341 5.94488 19.5116 5.78067 19.451 5.629L18 2H6L4.549 5.629C4.4884 5.78067 4.46588 5.94488 4.4834 6.10727C4.50092 6.26966 4.55795 6.42528 4.64951 6.56054C4.74106 6.6958 4.86435 6.80657 5.0086 6.88318C5.15285 6.95979 5.31367 6.9999 5.477 7ZM5 10C7.317 10 8.879 10.755 9.686 12.264C9.72679 12.3402 9.74714 12.4257 9.74506 12.5121C9.74297 12.5985 9.71852 12.6829 9.6741 12.757C9.62968 12.8311 9.5668 12.8925 9.49159 12.9351C9.41639 12.9777 9.33143 13 9.245 13H6C5.73478 13 5.48043 12.8946 5.29289 12.7071C5.10536 12.5196 5 12.2652 5 12V10ZM19 10V12C19 12.2652 18.8946 12.5196 18.7071 12.7071C18.5196 12.8946 18.2652 13 18 13H14.755C14.6687 12.9999 14.5838 12.9774 14.5088 12.9347C14.4337 12.892 14.3709 12.8307 14.3266 12.7566C14.2823 12.6825 14.258 12.5981 14.2559 12.5118C14.2539 12.4255 14.2742 12.3401 14.315 12.264C15.12 10.754 16.682 10 19 10Z" fill="#181A25"/>
</svg>
