<svg width="20" height="19" viewBox="0 0 20 19" fill="none" xmlns="http://www.w3.org/2000/svg">
<path d="M20 8V18C20 18.2652 19.8946 18.5196 19.7071 18.7071C19.5196 18.8946 19.2652 19 19 19H18C17.7348 19 17.4804 18.8946 17.2929 18.7071C17.1054 18.5196 17 18.2652 17 18V17H3V18C3 18.2652 2.89464 18.5196 2.70711 18.7071C2.51957 18.8946 2.26522 19 2 19H1C0.734784 19 0.48043 18.8946 0.292893 18.7071C0.105357 18.5196 0 18.2652 0 18V8L2.447 3.106C2.61313 2.77353 2.86862 2.49394 3.1848 2.29858C3.50098 2.10322 3.86534 1.99983 4.237 2H7V0H13V2H15.764C16.1355 2.00001 16.4996 2.10349 16.8156 2.29884C17.1316 2.49419 17.3869 2.77369 17.553 3.106L20 8ZM18 10H2V15H18V10ZM2.236 8H17.764L15.764 4H4.236L2.236 8ZM4.5 14C4.10218 14 3.72064 13.842 3.43934 13.5607C3.15804 13.2794 3 12.8978 3 12.5C3 12.1022 3.15804 11.7206 3.43934 11.4393C3.72064 11.158 4.10218 11 4.5 11C4.89782 11 5.27936 11.158 5.56066 11.4393C5.84196 11.7206 6 12.1022 6 12.5C6 12.8978 5.84196 13.2794 5.56066 13.5607C5.27936 13.842 4.89782 14 4.5 14ZM15.5 14C15.1022 14 14.7206 13.842 14.4393 13.5607C14.158 13.2794 14 12.8978 14 12.5C14 12.1022 14.158 11.7206 14.4393 11.4393C14.7206 11.158 15.1022 11 15.5 11C15.8978 11 16.2794 11.158 16.5607 11.4393C16.842 11.7206 17 12.1022 17 12.5C17 12.8978 16.842 13.2794 16.5607 13.5607C16.2794 13.842 15.8978 14 15.5 14Z" fill="#181A25"/>
</svg>
